G75*
%MOIN*%
%OFA0B0*%
%FSLAX24Y24*%
%IPPOS*%
%LPD*%
%AMOC8*
5,1,8,0,0,1.08239X$1,22.5*
%
%ADD10R,0.0236X0.0236*%
%ADD11R,0.0217X0.0472*%
%ADD12C,0.0428*%
%ADD13C,0.0025*%
%ADD14R,0.0984X0.0787*%
%ADD15R,0.1299X0.0787*%
%ADD16R,0.1220X0.0197*%
%ADD17R,0.0866X0.0236*%
%ADD18R,0.0315X0.0315*%
%ADD19R,0.0760X0.2100*%
%ADD20R,0.0630X0.0710*%
%ADD21R,0.0748X0.1339*%
%ADD22R,0.0830X0.0550*%
%ADD23R,0.0961X0.0445*%
%ADD24R,0.0472X0.0217*%
%ADD25R,0.0118X0.0630*%
%ADD26R,0.0630X0.0118*%
%ADD27R,0.0630X0.0138*%
%ADD28R,0.0630X0.0236*%
%ADD29R,0.0709X0.0500*%
%ADD30R,0.0551X0.0551*%
%ADD31R,0.0787X0.0472*%
%ADD32R,0.0315X0.0118*%
%ADD33R,0.0472X0.0118*%
%ADD34R,0.0250X0.0106*%
%ADD35R,0.0354X0.0630*%
%ADD36R,0.0472X0.0787*%
%ADD37R,0.0591X0.0500*%
%ADD38R,0.0335X0.0157*%
D10*
X004803Y003150D03*
X005197Y003150D03*
X005197Y003600D03*
X004803Y003600D03*
X004497Y006600D03*
X004103Y006600D03*
X004603Y010000D03*
X004997Y010000D03*
X004997Y010500D03*
X004603Y010500D03*
X003600Y011703D03*
X003600Y012097D03*
X003600Y012903D03*
X003600Y013297D03*
X004100Y013503D03*
X004100Y013897D03*
X004900Y012597D03*
X005300Y012597D03*
X005700Y012597D03*
X006300Y012597D03*
X006700Y012597D03*
X007100Y012597D03*
X007500Y012597D03*
X007500Y012203D03*
X007100Y012203D03*
X006700Y012203D03*
X006300Y012203D03*
X005700Y012203D03*
X005300Y012203D03*
X004900Y012203D03*
X013603Y012200D03*
X013997Y012200D03*
X013997Y013200D03*
X013603Y013200D03*
X013603Y014700D03*
X013997Y014700D03*
X013997Y015600D03*
X013603Y015600D03*
X013603Y016500D03*
X013997Y016500D03*
X015603Y016100D03*
X015997Y016100D03*
X019903Y016300D03*
X020297Y016300D03*
X020297Y015400D03*
X019903Y015400D03*
X019903Y014200D03*
X020297Y014200D03*
X020297Y013200D03*
X019903Y013200D03*
X025303Y013000D03*
X025697Y013000D03*
X025697Y012500D03*
X025303Y012500D03*
X025303Y012000D03*
X025697Y012000D03*
X025697Y010000D03*
X025303Y010000D03*
X025303Y009600D03*
X025697Y009600D03*
X024497Y007400D03*
X024103Y007400D03*
X021897Y007100D03*
X021503Y007100D03*
X017997Y008300D03*
X017603Y008300D03*
X020103Y009400D03*
X020497Y009400D03*
X020497Y009800D03*
X020103Y009800D03*
X020103Y010200D03*
X020497Y010200D03*
X017097Y010250D03*
X016703Y010250D03*
X017303Y005400D03*
X017697Y005400D03*
X020303Y005400D03*
X020697Y005400D03*
X014397Y005400D03*
X014003Y005400D03*
X027900Y005803D03*
X027900Y006197D03*
X028500Y006197D03*
X028500Y005803D03*
X029450Y005803D03*
X029450Y006197D03*
X029900Y006197D03*
X029900Y005803D03*
X030350Y005803D03*
X030350Y006197D03*
X033000Y006297D03*
X033400Y006297D03*
X033800Y006297D03*
X033800Y005903D03*
X033400Y005903D03*
X033000Y005903D03*
X034903Y010050D03*
X035297Y010050D03*
X035297Y010450D03*
X034903Y010450D03*
X037303Y010300D03*
X037697Y010300D03*
X037697Y011000D03*
X037303Y011000D03*
X034697Y012100D03*
X034303Y012100D03*
X030550Y014603D03*
X030200Y014603D03*
X030200Y014997D03*
X030550Y014997D03*
X036503Y014700D03*
X036897Y014700D03*
X037403Y014700D03*
X037797Y014700D03*
X038403Y014700D03*
X038797Y014700D03*
X043303Y014900D03*
X043697Y014900D03*
X045100Y016603D03*
X045100Y016997D03*
X045600Y016997D03*
X045600Y016603D03*
X046100Y016603D03*
X046100Y016997D03*
X046600Y016997D03*
X046600Y016603D03*
X049603Y016800D03*
X049997Y016800D03*
X049997Y017200D03*
X049603Y017200D03*
X049603Y017800D03*
X049997Y017800D03*
X049997Y016200D03*
X049603Y016200D03*
X049603Y015800D03*
X049997Y015800D03*
X049997Y015200D03*
X049603Y015200D03*
X048197Y014900D03*
X047803Y014900D03*
X043697Y013200D03*
X043303Y013200D03*
X043303Y012700D03*
X043697Y012700D03*
X043697Y012000D03*
X043303Y012000D03*
X043303Y011000D03*
X043697Y011000D03*
X043700Y009397D03*
X043700Y009003D03*
X043700Y008597D03*
X043700Y008203D03*
X046903Y008500D03*
X047297Y008500D03*
X047297Y009100D03*
X046903Y009100D03*
X046903Y009600D03*
X047297Y009600D03*
X049603Y009800D03*
X049997Y009800D03*
X049997Y010200D03*
X049603Y010200D03*
X049603Y010800D03*
X049997Y010800D03*
X049997Y011200D03*
X049603Y011200D03*
X049603Y011800D03*
X049997Y011800D03*
X047700Y011447D03*
X047700Y011053D03*
X049603Y009200D03*
X049997Y009200D03*
X023997Y018500D03*
X023603Y018500D03*
X023603Y018900D03*
X023997Y018900D03*
X023997Y019300D03*
X023603Y019300D03*
X023603Y019700D03*
X023997Y019700D03*
X008200Y018497D03*
X008200Y018103D03*
X006900Y018903D03*
X006900Y019297D03*
X004300Y019297D03*
X004300Y018903D03*
X002997Y019300D03*
X002603Y019300D03*
X002603Y019800D03*
X002997Y019800D03*
X001800Y018297D03*
X001200Y018297D03*
X001200Y017903D03*
X001800Y017903D03*
X002300Y016597D03*
X002300Y016203D03*
D11*
X002326Y017288D03*
X002700Y017288D03*
X003074Y017288D03*
X003074Y018312D03*
X002700Y018312D03*
X002326Y018312D03*
X015126Y005362D03*
X015874Y005362D03*
X015874Y004338D03*
X015500Y004338D03*
X015126Y004338D03*
X018326Y004338D03*
X018700Y004338D03*
X019074Y004338D03*
X019074Y005362D03*
X018326Y005362D03*
X021426Y005362D03*
X022174Y005362D03*
X022174Y004338D03*
X021800Y004338D03*
X021426Y004338D03*
X044926Y007738D03*
X045300Y007738D03*
X045674Y007738D03*
X045674Y008762D03*
X044926Y008762D03*
D12*
X006742Y015458D02*
X006742Y016742D01*
X006742Y015458D02*
X005458Y015458D01*
X005458Y016742D01*
X006742Y016742D01*
X006742Y015885D02*
X005458Y015885D01*
X005458Y016312D02*
X006742Y016312D01*
X006742Y016739D02*
X005458Y016739D01*
D13*
X004473Y016752D02*
X004473Y016826D01*
X004473Y016752D02*
X004183Y016752D01*
X004183Y016826D01*
X004473Y016826D01*
X004473Y016776D02*
X004183Y016776D01*
X004183Y016800D02*
X004473Y016800D01*
X004473Y016824D02*
X004183Y016824D01*
X004473Y016949D02*
X004473Y017023D01*
X004473Y016949D02*
X004183Y016949D01*
X004183Y017023D01*
X004473Y017023D01*
X004473Y016973D02*
X004183Y016973D01*
X004183Y016997D02*
X004473Y016997D01*
X004473Y017021D02*
X004183Y017021D01*
X004473Y017146D02*
X004473Y017220D01*
X004473Y017146D02*
X004183Y017146D01*
X004183Y017220D01*
X004473Y017220D01*
X004473Y017170D02*
X004183Y017170D01*
X004183Y017194D02*
X004473Y017194D01*
X004473Y017218D02*
X004183Y017218D01*
X004473Y017343D02*
X004473Y017417D01*
X004473Y017343D02*
X004183Y017343D01*
X004183Y017417D01*
X004473Y017417D01*
X004473Y017367D02*
X004183Y017367D01*
X004183Y017391D02*
X004473Y017391D01*
X004473Y017415D02*
X004183Y017415D01*
X004473Y017539D02*
X004473Y017613D01*
X004473Y017539D02*
X004183Y017539D01*
X004183Y017613D01*
X004473Y017613D01*
X004473Y017563D02*
X004183Y017563D01*
X004183Y017587D02*
X004473Y017587D01*
X004473Y017611D02*
X004183Y017611D01*
X004587Y017727D02*
X004661Y017727D01*
X004587Y017727D02*
X004587Y018017D01*
X004661Y018017D01*
X004661Y017727D01*
X004661Y017751D02*
X004587Y017751D01*
X004587Y017775D02*
X004661Y017775D01*
X004661Y017799D02*
X004587Y017799D01*
X004587Y017823D02*
X004661Y017823D01*
X004661Y017847D02*
X004587Y017847D01*
X004587Y017871D02*
X004661Y017871D01*
X004661Y017895D02*
X004587Y017895D01*
X004587Y017919D02*
X004661Y017919D01*
X004661Y017943D02*
X004587Y017943D01*
X004587Y017967D02*
X004661Y017967D01*
X004661Y017991D02*
X004587Y017991D01*
X004587Y018015D02*
X004661Y018015D01*
X004783Y017727D02*
X004857Y017727D01*
X004783Y017727D02*
X004783Y018017D01*
X004857Y018017D01*
X004857Y017727D01*
X004857Y017751D02*
X004783Y017751D01*
X004783Y017775D02*
X004857Y017775D01*
X004857Y017799D02*
X004783Y017799D01*
X004783Y017823D02*
X004857Y017823D01*
X004857Y017847D02*
X004783Y017847D01*
X004783Y017871D02*
X004857Y017871D01*
X004857Y017895D02*
X004783Y017895D01*
X004783Y017919D02*
X004857Y017919D01*
X004857Y017943D02*
X004783Y017943D01*
X004783Y017967D02*
X004857Y017967D01*
X004857Y017991D02*
X004783Y017991D01*
X004783Y018015D02*
X004857Y018015D01*
X004980Y017727D02*
X005054Y017727D01*
X004980Y017727D02*
X004980Y018017D01*
X005054Y018017D01*
X005054Y017727D01*
X005054Y017751D02*
X004980Y017751D01*
X004980Y017775D02*
X005054Y017775D01*
X005054Y017799D02*
X004980Y017799D01*
X004980Y017823D02*
X005054Y017823D01*
X005054Y017847D02*
X004980Y017847D01*
X004980Y017871D02*
X005054Y017871D01*
X005054Y017895D02*
X004980Y017895D01*
X004980Y017919D02*
X005054Y017919D01*
X005054Y017943D02*
X004980Y017943D01*
X004980Y017967D02*
X005054Y017967D01*
X005054Y017991D02*
X004980Y017991D01*
X004980Y018015D02*
X005054Y018015D01*
X005177Y017727D02*
X005251Y017727D01*
X005177Y017727D02*
X005177Y018017D01*
X005251Y018017D01*
X005251Y017727D01*
X005251Y017751D02*
X005177Y017751D01*
X005177Y017775D02*
X005251Y017775D01*
X005251Y017799D02*
X005177Y017799D01*
X005177Y017823D02*
X005251Y017823D01*
X005251Y017847D02*
X005177Y017847D01*
X005177Y017871D02*
X005251Y017871D01*
X005251Y017895D02*
X005177Y017895D01*
X005177Y017919D02*
X005251Y017919D01*
X005251Y017943D02*
X005177Y017943D01*
X005177Y017967D02*
X005251Y017967D01*
X005251Y017991D02*
X005177Y017991D01*
X005177Y018015D02*
X005251Y018015D01*
X005374Y017727D02*
X005448Y017727D01*
X005374Y017727D02*
X005374Y018017D01*
X005448Y018017D01*
X005448Y017727D01*
X005448Y017751D02*
X005374Y017751D01*
X005374Y017775D02*
X005448Y017775D01*
X005448Y017799D02*
X005374Y017799D01*
X005374Y017823D02*
X005448Y017823D01*
X005448Y017847D02*
X005374Y017847D01*
X005374Y017871D02*
X005448Y017871D01*
X005448Y017895D02*
X005374Y017895D01*
X005374Y017919D02*
X005448Y017919D01*
X005448Y017943D02*
X005374Y017943D01*
X005374Y017967D02*
X005448Y017967D01*
X005448Y017991D02*
X005374Y017991D01*
X005374Y018015D02*
X005448Y018015D01*
X005571Y017727D02*
X005645Y017727D01*
X005571Y017727D02*
X005571Y018017D01*
X005645Y018017D01*
X005645Y017727D01*
X005645Y017751D02*
X005571Y017751D01*
X005571Y017775D02*
X005645Y017775D01*
X005645Y017799D02*
X005571Y017799D01*
X005571Y017823D02*
X005645Y017823D01*
X005645Y017847D02*
X005571Y017847D01*
X005571Y017871D02*
X005645Y017871D01*
X005645Y017895D02*
X005571Y017895D01*
X005571Y017919D02*
X005645Y017919D01*
X005645Y017943D02*
X005571Y017943D01*
X005571Y017967D02*
X005645Y017967D01*
X005645Y017991D02*
X005571Y017991D01*
X005571Y018015D02*
X005645Y018015D01*
X005768Y017727D02*
X005842Y017727D01*
X005768Y017727D02*
X005768Y018017D01*
X005842Y018017D01*
X005842Y017727D01*
X005842Y017751D02*
X005768Y017751D01*
X005768Y017775D02*
X005842Y017775D01*
X005842Y017799D02*
X005768Y017799D01*
X005768Y017823D02*
X005842Y017823D01*
X005842Y017847D02*
X005768Y017847D01*
X005768Y017871D02*
X005842Y017871D01*
X005842Y017895D02*
X005768Y017895D01*
X005768Y017919D02*
X005842Y017919D01*
X005842Y017943D02*
X005768Y017943D01*
X005768Y017967D02*
X005842Y017967D01*
X005842Y017991D02*
X005768Y017991D01*
X005768Y018015D02*
X005842Y018015D01*
X005965Y017727D02*
X006039Y017727D01*
X005965Y017727D02*
X005965Y018017D01*
X006039Y018017D01*
X006039Y017727D01*
X006039Y017751D02*
X005965Y017751D01*
X005965Y017775D02*
X006039Y017775D01*
X006039Y017799D02*
X005965Y017799D01*
X005965Y017823D02*
X006039Y017823D01*
X006039Y017847D02*
X005965Y017847D01*
X005965Y017871D02*
X006039Y017871D01*
X006039Y017895D02*
X005965Y017895D01*
X005965Y017919D02*
X006039Y017919D01*
X006039Y017943D02*
X005965Y017943D01*
X005965Y017967D02*
X006039Y017967D01*
X006039Y017991D02*
X005965Y017991D01*
X005965Y018015D02*
X006039Y018015D01*
X006161Y017727D02*
X006235Y017727D01*
X006161Y017727D02*
X006161Y018017D01*
X006235Y018017D01*
X006235Y017727D01*
X006235Y017751D02*
X006161Y017751D01*
X006161Y017775D02*
X006235Y017775D01*
X006235Y017799D02*
X006161Y017799D01*
X006161Y017823D02*
X006235Y017823D01*
X006235Y017847D02*
X006161Y017847D01*
X006161Y017871D02*
X006235Y017871D01*
X006235Y017895D02*
X006161Y017895D01*
X006161Y017919D02*
X006235Y017919D01*
X006235Y017943D02*
X006161Y017943D01*
X006161Y017967D02*
X006235Y017967D01*
X006235Y017991D02*
X006161Y017991D01*
X006161Y018015D02*
X006235Y018015D01*
X006358Y017727D02*
X006432Y017727D01*
X006358Y017727D02*
X006358Y018017D01*
X006432Y018017D01*
X006432Y017727D01*
X006432Y017751D02*
X006358Y017751D01*
X006358Y017775D02*
X006432Y017775D01*
X006432Y017799D02*
X006358Y017799D01*
X006358Y017823D02*
X006432Y017823D01*
X006432Y017847D02*
X006358Y017847D01*
X006358Y017871D02*
X006432Y017871D01*
X006432Y017895D02*
X006358Y017895D01*
X006358Y017919D02*
X006432Y017919D01*
X006432Y017943D02*
X006358Y017943D01*
X006358Y017967D02*
X006432Y017967D01*
X006432Y017991D02*
X006358Y017991D01*
X006358Y018015D02*
X006432Y018015D01*
X006555Y017727D02*
X006629Y017727D01*
X006555Y017727D02*
X006555Y018017D01*
X006629Y018017D01*
X006629Y017727D01*
X006629Y017751D02*
X006555Y017751D01*
X006555Y017775D02*
X006629Y017775D01*
X006629Y017799D02*
X006555Y017799D01*
X006555Y017823D02*
X006629Y017823D01*
X006629Y017847D02*
X006555Y017847D01*
X006555Y017871D02*
X006629Y017871D01*
X006629Y017895D02*
X006555Y017895D01*
X006555Y017919D02*
X006629Y017919D01*
X006629Y017943D02*
X006555Y017943D01*
X006555Y017967D02*
X006629Y017967D01*
X006629Y017991D02*
X006555Y017991D01*
X006555Y018015D02*
X006629Y018015D01*
X006752Y017727D02*
X006826Y017727D01*
X006752Y017727D02*
X006752Y018017D01*
X006826Y018017D01*
X006826Y017727D01*
X006826Y017751D02*
X006752Y017751D01*
X006752Y017775D02*
X006826Y017775D01*
X006826Y017799D02*
X006752Y017799D01*
X006752Y017823D02*
X006826Y017823D01*
X006826Y017847D02*
X006752Y017847D01*
X006752Y017871D02*
X006826Y017871D01*
X006826Y017895D02*
X006752Y017895D01*
X006752Y017919D02*
X006826Y017919D01*
X006826Y017943D02*
X006752Y017943D01*
X006752Y017967D02*
X006826Y017967D01*
X006826Y017991D02*
X006752Y017991D01*
X006752Y018015D02*
X006826Y018015D01*
X006949Y017727D02*
X007023Y017727D01*
X006949Y017727D02*
X006949Y018017D01*
X007023Y018017D01*
X007023Y017727D01*
X007023Y017751D02*
X006949Y017751D01*
X006949Y017775D02*
X007023Y017775D01*
X007023Y017799D02*
X006949Y017799D01*
X006949Y017823D02*
X007023Y017823D01*
X007023Y017847D02*
X006949Y017847D01*
X006949Y017871D02*
X007023Y017871D01*
X007023Y017895D02*
X006949Y017895D01*
X006949Y017919D02*
X007023Y017919D01*
X007023Y017943D02*
X006949Y017943D01*
X006949Y017967D02*
X007023Y017967D01*
X007023Y017991D02*
X006949Y017991D01*
X006949Y018015D02*
X007023Y018015D01*
X007146Y017727D02*
X007220Y017727D01*
X007146Y017727D02*
X007146Y018017D01*
X007220Y018017D01*
X007220Y017727D01*
X007220Y017751D02*
X007146Y017751D01*
X007146Y017775D02*
X007220Y017775D01*
X007220Y017799D02*
X007146Y017799D01*
X007146Y017823D02*
X007220Y017823D01*
X007220Y017847D02*
X007146Y017847D01*
X007146Y017871D02*
X007220Y017871D01*
X007220Y017895D02*
X007146Y017895D01*
X007146Y017919D02*
X007220Y017919D01*
X007220Y017943D02*
X007146Y017943D01*
X007146Y017967D02*
X007220Y017967D01*
X007220Y017991D02*
X007146Y017991D01*
X007146Y018015D02*
X007220Y018015D01*
X007343Y017727D02*
X007417Y017727D01*
X007343Y017727D02*
X007343Y018017D01*
X007417Y018017D01*
X007417Y017727D01*
X007417Y017751D02*
X007343Y017751D01*
X007343Y017775D02*
X007417Y017775D01*
X007417Y017799D02*
X007343Y017799D01*
X007343Y017823D02*
X007417Y017823D01*
X007417Y017847D02*
X007343Y017847D01*
X007343Y017871D02*
X007417Y017871D01*
X007417Y017895D02*
X007343Y017895D01*
X007343Y017919D02*
X007417Y017919D01*
X007417Y017943D02*
X007343Y017943D01*
X007343Y017967D02*
X007417Y017967D01*
X007417Y017991D02*
X007343Y017991D01*
X007343Y018015D02*
X007417Y018015D01*
X007539Y017727D02*
X007613Y017727D01*
X007539Y017727D02*
X007539Y018017D01*
X007613Y018017D01*
X007613Y017727D01*
X007613Y017751D02*
X007539Y017751D01*
X007539Y017775D02*
X007613Y017775D01*
X007613Y017799D02*
X007539Y017799D01*
X007539Y017823D02*
X007613Y017823D01*
X007613Y017847D02*
X007539Y017847D01*
X007539Y017871D02*
X007613Y017871D01*
X007613Y017895D02*
X007539Y017895D01*
X007539Y017919D02*
X007613Y017919D01*
X007613Y017943D02*
X007539Y017943D01*
X007539Y017967D02*
X007613Y017967D01*
X007613Y017991D02*
X007539Y017991D01*
X007539Y018015D02*
X007613Y018015D01*
X007727Y017613D02*
X007727Y017539D01*
X007727Y017613D02*
X008017Y017613D01*
X008017Y017539D01*
X007727Y017539D01*
X007727Y017563D02*
X008017Y017563D01*
X008017Y017587D02*
X007727Y017587D01*
X007727Y017611D02*
X008017Y017611D01*
X007727Y017417D02*
X007727Y017343D01*
X007727Y017417D02*
X008017Y017417D01*
X008017Y017343D01*
X007727Y017343D01*
X007727Y017367D02*
X008017Y017367D01*
X008017Y017391D02*
X007727Y017391D01*
X007727Y017415D02*
X008017Y017415D01*
X007727Y017220D02*
X007727Y017146D01*
X007727Y017220D02*
X008017Y017220D01*
X008017Y017146D01*
X007727Y017146D01*
X007727Y017170D02*
X008017Y017170D01*
X008017Y017194D02*
X007727Y017194D01*
X007727Y017218D02*
X008017Y017218D01*
X007727Y017023D02*
X007727Y016949D01*
X007727Y017023D02*
X008017Y017023D01*
X008017Y016949D01*
X007727Y016949D01*
X007727Y016973D02*
X008017Y016973D01*
X008017Y016997D02*
X007727Y016997D01*
X007727Y017021D02*
X008017Y017021D01*
X007727Y016826D02*
X007727Y016752D01*
X007727Y016826D02*
X008017Y016826D01*
X008017Y016752D01*
X007727Y016752D01*
X007727Y016776D02*
X008017Y016776D01*
X008017Y016800D02*
X007727Y016800D01*
X007727Y016824D02*
X008017Y016824D01*
X007727Y016629D02*
X007727Y016555D01*
X007727Y016629D02*
X008017Y016629D01*
X008017Y016555D01*
X007727Y016555D01*
X007727Y016579D02*
X008017Y016579D01*
X008017Y016603D02*
X007727Y016603D01*
X007727Y016627D02*
X008017Y016627D01*
X007727Y016432D02*
X007727Y016358D01*
X007727Y016432D02*
X008017Y016432D01*
X008017Y016358D01*
X007727Y016358D01*
X007727Y016382D02*
X008017Y016382D01*
X008017Y016406D02*
X007727Y016406D01*
X007727Y016430D02*
X008017Y016430D01*
X007727Y016235D02*
X007727Y016161D01*
X007727Y016235D02*
X008017Y016235D01*
X008017Y016161D01*
X007727Y016161D01*
X007727Y016185D02*
X008017Y016185D01*
X008017Y016209D02*
X007727Y016209D01*
X007727Y016233D02*
X008017Y016233D01*
X007727Y016039D02*
X007727Y015965D01*
X007727Y016039D02*
X008017Y016039D01*
X008017Y015965D01*
X007727Y015965D01*
X007727Y015989D02*
X008017Y015989D01*
X008017Y016013D02*
X007727Y016013D01*
X007727Y016037D02*
X008017Y016037D01*
X007727Y015842D02*
X007727Y015768D01*
X007727Y015842D02*
X008017Y015842D01*
X008017Y015768D01*
X007727Y015768D01*
X007727Y015792D02*
X008017Y015792D01*
X008017Y015816D02*
X007727Y015816D01*
X007727Y015840D02*
X008017Y015840D01*
X007727Y015645D02*
X007727Y015571D01*
X007727Y015645D02*
X008017Y015645D01*
X008017Y015571D01*
X007727Y015571D01*
X007727Y015595D02*
X008017Y015595D01*
X008017Y015619D02*
X007727Y015619D01*
X007727Y015643D02*
X008017Y015643D01*
X007727Y015448D02*
X007727Y015374D01*
X007727Y015448D02*
X008017Y015448D01*
X008017Y015374D01*
X007727Y015374D01*
X007727Y015398D02*
X008017Y015398D01*
X008017Y015422D02*
X007727Y015422D01*
X007727Y015446D02*
X008017Y015446D01*
X007727Y015251D02*
X007727Y015177D01*
X007727Y015251D02*
X008017Y015251D01*
X008017Y015177D01*
X007727Y015177D01*
X007727Y015201D02*
X008017Y015201D01*
X008017Y015225D02*
X007727Y015225D01*
X007727Y015249D02*
X008017Y015249D01*
X007727Y015054D02*
X007727Y014980D01*
X007727Y015054D02*
X008017Y015054D01*
X008017Y014980D01*
X007727Y014980D01*
X007727Y015004D02*
X008017Y015004D01*
X008017Y015028D02*
X007727Y015028D01*
X007727Y015052D02*
X008017Y015052D01*
X007727Y014857D02*
X007727Y014783D01*
X007727Y014857D02*
X008017Y014857D01*
X008017Y014783D01*
X007727Y014783D01*
X007727Y014807D02*
X008017Y014807D01*
X008017Y014831D02*
X007727Y014831D01*
X007727Y014855D02*
X008017Y014855D01*
X007727Y014661D02*
X007727Y014587D01*
X007727Y014661D02*
X008017Y014661D01*
X008017Y014587D01*
X007727Y014587D01*
X007727Y014611D02*
X008017Y014611D01*
X008017Y014635D02*
X007727Y014635D01*
X007727Y014659D02*
X008017Y014659D01*
X007613Y014473D02*
X007539Y014473D01*
X007613Y014473D02*
X007613Y014183D01*
X007539Y014183D01*
X007539Y014473D01*
X007539Y014207D02*
X007613Y014207D01*
X007613Y014231D02*
X007539Y014231D01*
X007539Y014255D02*
X007613Y014255D01*
X007613Y014279D02*
X007539Y014279D01*
X007539Y014303D02*
X007613Y014303D01*
X007613Y014327D02*
X007539Y014327D01*
X007539Y014351D02*
X007613Y014351D01*
X007613Y014375D02*
X007539Y014375D01*
X007539Y014399D02*
X007613Y014399D01*
X007613Y014423D02*
X007539Y014423D01*
X007539Y014447D02*
X007613Y014447D01*
X007613Y014471D02*
X007539Y014471D01*
X007417Y014473D02*
X007343Y014473D01*
X007417Y014473D02*
X007417Y014183D01*
X007343Y014183D01*
X007343Y014473D01*
X007343Y014207D02*
X007417Y014207D01*
X007417Y014231D02*
X007343Y014231D01*
X007343Y014255D02*
X007417Y014255D01*
X007417Y014279D02*
X007343Y014279D01*
X007343Y014303D02*
X007417Y014303D01*
X007417Y014327D02*
X007343Y014327D01*
X007343Y014351D02*
X007417Y014351D01*
X007417Y014375D02*
X007343Y014375D01*
X007343Y014399D02*
X007417Y014399D01*
X007417Y014423D02*
X007343Y014423D01*
X007343Y014447D02*
X007417Y014447D01*
X007417Y014471D02*
X007343Y014471D01*
X007220Y014473D02*
X007146Y014473D01*
X007220Y014473D02*
X007220Y014183D01*
X007146Y014183D01*
X007146Y014473D01*
X007146Y014207D02*
X007220Y014207D01*
X007220Y014231D02*
X007146Y014231D01*
X007146Y014255D02*
X007220Y014255D01*
X007220Y014279D02*
X007146Y014279D01*
X007146Y014303D02*
X007220Y014303D01*
X007220Y014327D02*
X007146Y014327D01*
X007146Y014351D02*
X007220Y014351D01*
X007220Y014375D02*
X007146Y014375D01*
X007146Y014399D02*
X007220Y014399D01*
X007220Y014423D02*
X007146Y014423D01*
X007146Y014447D02*
X007220Y014447D01*
X007220Y014471D02*
X007146Y014471D01*
X007023Y014473D02*
X006949Y014473D01*
X007023Y014473D02*
X007023Y014183D01*
X006949Y014183D01*
X006949Y014473D01*
X006949Y014207D02*
X007023Y014207D01*
X007023Y014231D02*
X006949Y014231D01*
X006949Y014255D02*
X007023Y014255D01*
X007023Y014279D02*
X006949Y014279D01*
X006949Y014303D02*
X007023Y014303D01*
X007023Y014327D02*
X006949Y014327D01*
X006949Y014351D02*
X007023Y014351D01*
X007023Y014375D02*
X006949Y014375D01*
X006949Y014399D02*
X007023Y014399D01*
X007023Y014423D02*
X006949Y014423D01*
X006949Y014447D02*
X007023Y014447D01*
X007023Y014471D02*
X006949Y014471D01*
X006826Y014473D02*
X006752Y014473D01*
X006826Y014473D02*
X006826Y014183D01*
X006752Y014183D01*
X006752Y014473D01*
X006752Y014207D02*
X006826Y014207D01*
X006826Y014231D02*
X006752Y014231D01*
X006752Y014255D02*
X006826Y014255D01*
X006826Y014279D02*
X006752Y014279D01*
X006752Y014303D02*
X006826Y014303D01*
X006826Y014327D02*
X006752Y014327D01*
X006752Y014351D02*
X006826Y014351D01*
X006826Y014375D02*
X006752Y014375D01*
X006752Y014399D02*
X006826Y014399D01*
X006826Y014423D02*
X006752Y014423D01*
X006752Y014447D02*
X006826Y014447D01*
X006826Y014471D02*
X006752Y014471D01*
X006629Y014473D02*
X006555Y014473D01*
X006629Y014473D02*
X006629Y014183D01*
X006555Y014183D01*
X006555Y014473D01*
X006555Y014207D02*
X006629Y014207D01*
X006629Y014231D02*
X006555Y014231D01*
X006555Y014255D02*
X006629Y014255D01*
X006629Y014279D02*
X006555Y014279D01*
X006555Y014303D02*
X006629Y014303D01*
X006629Y014327D02*
X006555Y014327D01*
X006555Y014351D02*
X006629Y014351D01*
X006629Y014375D02*
X006555Y014375D01*
X006555Y014399D02*
X006629Y014399D01*
X006629Y014423D02*
X006555Y014423D01*
X006555Y014447D02*
X006629Y014447D01*
X006629Y014471D02*
X006555Y014471D01*
X006432Y014473D02*
X006358Y014473D01*
X006432Y014473D02*
X006432Y014183D01*
X006358Y014183D01*
X006358Y014473D01*
X006358Y014207D02*
X006432Y014207D01*
X006432Y014231D02*
X006358Y014231D01*
X006358Y014255D02*
X006432Y014255D01*
X006432Y014279D02*
X006358Y014279D01*
X006358Y014303D02*
X006432Y014303D01*
X006432Y014327D02*
X006358Y014327D01*
X006358Y014351D02*
X006432Y014351D01*
X006432Y014375D02*
X006358Y014375D01*
X006358Y014399D02*
X006432Y014399D01*
X006432Y014423D02*
X006358Y014423D01*
X006358Y014447D02*
X006432Y014447D01*
X006432Y014471D02*
X006358Y014471D01*
X006235Y014473D02*
X006161Y014473D01*
X006235Y014473D02*
X006235Y014183D01*
X006161Y014183D01*
X006161Y014473D01*
X006161Y014207D02*
X006235Y014207D01*
X006235Y014231D02*
X006161Y014231D01*
X006161Y014255D02*
X006235Y014255D01*
X006235Y014279D02*
X006161Y014279D01*
X006161Y014303D02*
X006235Y014303D01*
X006235Y014327D02*
X006161Y014327D01*
X006161Y014351D02*
X006235Y014351D01*
X006235Y014375D02*
X006161Y014375D01*
X006161Y014399D02*
X006235Y014399D01*
X006235Y014423D02*
X006161Y014423D01*
X006161Y014447D02*
X006235Y014447D01*
X006235Y014471D02*
X006161Y014471D01*
X006039Y014473D02*
X005965Y014473D01*
X006039Y014473D02*
X006039Y014183D01*
X005965Y014183D01*
X005965Y014473D01*
X005965Y014207D02*
X006039Y014207D01*
X006039Y014231D02*
X005965Y014231D01*
X005965Y014255D02*
X006039Y014255D01*
X006039Y014279D02*
X005965Y014279D01*
X005965Y014303D02*
X006039Y014303D01*
X006039Y014327D02*
X005965Y014327D01*
X005965Y014351D02*
X006039Y014351D01*
X006039Y014375D02*
X005965Y014375D01*
X005965Y014399D02*
X006039Y014399D01*
X006039Y014423D02*
X005965Y014423D01*
X005965Y014447D02*
X006039Y014447D01*
X006039Y014471D02*
X005965Y014471D01*
X005842Y014473D02*
X005768Y014473D01*
X005842Y014473D02*
X005842Y014183D01*
X005768Y014183D01*
X005768Y014473D01*
X005768Y014207D02*
X005842Y014207D01*
X005842Y014231D02*
X005768Y014231D01*
X005768Y014255D02*
X005842Y014255D01*
X005842Y014279D02*
X005768Y014279D01*
X005768Y014303D02*
X005842Y014303D01*
X005842Y014327D02*
X005768Y014327D01*
X005768Y014351D02*
X005842Y014351D01*
X005842Y014375D02*
X005768Y014375D01*
X005768Y014399D02*
X005842Y014399D01*
X005842Y014423D02*
X005768Y014423D01*
X005768Y014447D02*
X005842Y014447D01*
X005842Y014471D02*
X005768Y014471D01*
X005645Y014473D02*
X005571Y014473D01*
X005645Y014473D02*
X005645Y014183D01*
X005571Y014183D01*
X005571Y014473D01*
X005571Y014207D02*
X005645Y014207D01*
X005645Y014231D02*
X005571Y014231D01*
X005571Y014255D02*
X005645Y014255D01*
X005645Y014279D02*
X005571Y014279D01*
X005571Y014303D02*
X005645Y014303D01*
X005645Y014327D02*
X005571Y014327D01*
X005571Y014351D02*
X005645Y014351D01*
X005645Y014375D02*
X005571Y014375D01*
X005571Y014399D02*
X005645Y014399D01*
X005645Y014423D02*
X005571Y014423D01*
X005571Y014447D02*
X005645Y014447D01*
X005645Y014471D02*
X005571Y014471D01*
X005448Y014473D02*
X005374Y014473D01*
X005448Y014473D02*
X005448Y014183D01*
X005374Y014183D01*
X005374Y014473D01*
X005374Y014207D02*
X005448Y014207D01*
X005448Y014231D02*
X005374Y014231D01*
X005374Y014255D02*
X005448Y014255D01*
X005448Y014279D02*
X005374Y014279D01*
X005374Y014303D02*
X005448Y014303D01*
X005448Y014327D02*
X005374Y014327D01*
X005374Y014351D02*
X005448Y014351D01*
X005448Y014375D02*
X005374Y014375D01*
X005374Y014399D02*
X005448Y014399D01*
X005448Y014423D02*
X005374Y014423D01*
X005374Y014447D02*
X005448Y014447D01*
X005448Y014471D02*
X005374Y014471D01*
X005251Y014473D02*
X005177Y014473D01*
X005251Y014473D02*
X005251Y014183D01*
X005177Y014183D01*
X005177Y014473D01*
X005177Y014207D02*
X005251Y014207D01*
X005251Y014231D02*
X005177Y014231D01*
X005177Y014255D02*
X005251Y014255D01*
X005251Y014279D02*
X005177Y014279D01*
X005177Y014303D02*
X005251Y014303D01*
X005251Y014327D02*
X005177Y014327D01*
X005177Y014351D02*
X005251Y014351D01*
X005251Y014375D02*
X005177Y014375D01*
X005177Y014399D02*
X005251Y014399D01*
X005251Y014423D02*
X005177Y014423D01*
X005177Y014447D02*
X005251Y014447D01*
X005251Y014471D02*
X005177Y014471D01*
X005054Y014473D02*
X004980Y014473D01*
X005054Y014473D02*
X005054Y014183D01*
X004980Y014183D01*
X004980Y014473D01*
X004980Y014207D02*
X005054Y014207D01*
X005054Y014231D02*
X004980Y014231D01*
X004980Y014255D02*
X005054Y014255D01*
X005054Y014279D02*
X004980Y014279D01*
X004980Y014303D02*
X005054Y014303D01*
X005054Y014327D02*
X004980Y014327D01*
X004980Y014351D02*
X005054Y014351D01*
X005054Y014375D02*
X004980Y014375D01*
X004980Y014399D02*
X005054Y014399D01*
X005054Y014423D02*
X004980Y014423D01*
X004980Y014447D02*
X005054Y014447D01*
X005054Y014471D02*
X004980Y014471D01*
X004857Y014473D02*
X004783Y014473D01*
X004857Y014473D02*
X004857Y014183D01*
X004783Y014183D01*
X004783Y014473D01*
X004783Y014207D02*
X004857Y014207D01*
X004857Y014231D02*
X004783Y014231D01*
X004783Y014255D02*
X004857Y014255D01*
X004857Y014279D02*
X004783Y014279D01*
X004783Y014303D02*
X004857Y014303D01*
X004857Y014327D02*
X004783Y014327D01*
X004783Y014351D02*
X004857Y014351D01*
X004857Y014375D02*
X004783Y014375D01*
X004783Y014399D02*
X004857Y014399D01*
X004857Y014423D02*
X004783Y014423D01*
X004783Y014447D02*
X004857Y014447D01*
X004857Y014471D02*
X004783Y014471D01*
X004661Y014473D02*
X004587Y014473D01*
X004661Y014473D02*
X004661Y014183D01*
X004587Y014183D01*
X004587Y014473D01*
X004587Y014207D02*
X004661Y014207D01*
X004661Y014231D02*
X004587Y014231D01*
X004587Y014255D02*
X004661Y014255D01*
X004661Y014279D02*
X004587Y014279D01*
X004587Y014303D02*
X004661Y014303D01*
X004661Y014327D02*
X004587Y014327D01*
X004587Y014351D02*
X004661Y014351D01*
X004661Y014375D02*
X004587Y014375D01*
X004587Y014399D02*
X004661Y014399D01*
X004661Y014423D02*
X004587Y014423D01*
X004587Y014447D02*
X004661Y014447D01*
X004661Y014471D02*
X004587Y014471D01*
X004473Y014587D02*
X004473Y014661D01*
X004473Y014587D02*
X004183Y014587D01*
X004183Y014661D01*
X004473Y014661D01*
X004473Y014611D02*
X004183Y014611D01*
X004183Y014635D02*
X004473Y014635D01*
X004473Y014659D02*
X004183Y014659D01*
X004473Y014783D02*
X004473Y014857D01*
X004473Y014783D02*
X004183Y014783D01*
X004183Y014857D01*
X004473Y014857D01*
X004473Y014807D02*
X004183Y014807D01*
X004183Y014831D02*
X004473Y014831D01*
X004473Y014855D02*
X004183Y014855D01*
X004473Y014980D02*
X004473Y015054D01*
X004473Y014980D02*
X004183Y014980D01*
X004183Y015054D01*
X004473Y015054D01*
X004473Y015004D02*
X004183Y015004D01*
X004183Y015028D02*
X004473Y015028D01*
X004473Y015052D02*
X004183Y015052D01*
X004473Y015177D02*
X004473Y015251D01*
X004473Y015177D02*
X004183Y015177D01*
X004183Y015251D01*
X004473Y015251D01*
X004473Y015201D02*
X004183Y015201D01*
X004183Y015225D02*
X004473Y015225D01*
X004473Y015249D02*
X004183Y015249D01*
X004473Y015374D02*
X004473Y015448D01*
X004473Y015374D02*
X004183Y015374D01*
X004183Y015448D01*
X004473Y015448D01*
X004473Y015398D02*
X004183Y015398D01*
X004183Y015422D02*
X004473Y015422D01*
X004473Y015446D02*
X004183Y015446D01*
X004473Y015571D02*
X004473Y015645D01*
X004473Y015571D02*
X004183Y015571D01*
X004183Y015645D01*
X004473Y015645D01*
X004473Y015595D02*
X004183Y015595D01*
X004183Y015619D02*
X004473Y015619D01*
X004473Y015643D02*
X004183Y015643D01*
X004473Y015768D02*
X004473Y015842D01*
X004473Y015768D02*
X004183Y015768D01*
X004183Y015842D01*
X004473Y015842D01*
X004473Y015792D02*
X004183Y015792D01*
X004183Y015816D02*
X004473Y015816D01*
X004473Y015840D02*
X004183Y015840D01*
X004473Y015965D02*
X004473Y016039D01*
X004473Y015965D02*
X004183Y015965D01*
X004183Y016039D01*
X004473Y016039D01*
X004473Y015989D02*
X004183Y015989D01*
X004183Y016013D02*
X004473Y016013D01*
X004473Y016037D02*
X004183Y016037D01*
X004473Y016161D02*
X004473Y016235D01*
X004473Y016161D02*
X004183Y016161D01*
X004183Y016235D01*
X004473Y016235D01*
X004473Y016185D02*
X004183Y016185D01*
X004183Y016209D02*
X004473Y016209D01*
X004473Y016233D02*
X004183Y016233D01*
X004473Y016358D02*
X004473Y016432D01*
X004473Y016358D02*
X004183Y016358D01*
X004183Y016432D01*
X004473Y016432D01*
X004473Y016382D02*
X004183Y016382D01*
X004183Y016406D02*
X004473Y016406D01*
X004473Y016430D02*
X004183Y016430D01*
X004473Y016555D02*
X004473Y016629D01*
X004473Y016555D02*
X004183Y016555D01*
X004183Y016629D01*
X004473Y016629D01*
X004473Y016579D02*
X004183Y016579D01*
X004183Y016603D02*
X004473Y016603D01*
X004473Y016627D02*
X004183Y016627D01*
D14*
X001319Y001448D03*
X001319Y004952D03*
D15*
X003642Y004952D03*
X003642Y001448D03*
D16*
X003681Y002570D03*
X003681Y002885D03*
X003681Y003200D03*
X003681Y003515D03*
X003681Y003830D03*
D17*
X006789Y004050D03*
X006789Y003550D03*
X006789Y004550D03*
X006789Y005050D03*
X006789Y005550D03*
X006789Y006050D03*
X006789Y006550D03*
X006789Y007050D03*
X006789Y007950D03*
X006789Y008450D03*
X006789Y008950D03*
X006789Y009450D03*
X006789Y009950D03*
X006789Y010450D03*
X006789Y010950D03*
X006789Y011450D03*
X010411Y011450D03*
X010411Y010950D03*
X010411Y010450D03*
X010411Y009950D03*
X010411Y009450D03*
X010411Y008950D03*
X010411Y008450D03*
X010411Y007950D03*
X010411Y007050D03*
X010411Y006550D03*
X010411Y006050D03*
X010411Y005550D03*
X010411Y005050D03*
X010411Y004550D03*
X010411Y004050D03*
X010411Y003550D03*
D18*
X004995Y011100D03*
X004405Y011100D03*
X011305Y015500D03*
X011895Y015500D03*
X011895Y016300D03*
X011305Y016300D03*
X011305Y017100D03*
X011895Y017100D03*
X001795Y019300D03*
X001205Y019300D03*
X001205Y019800D03*
X001795Y019800D03*
D19*
X002200Y014500D03*
X002200Y010700D03*
D20*
X008040Y010600D03*
X009160Y010600D03*
X009160Y011500D03*
X008040Y011500D03*
X008040Y009600D03*
X009160Y009600D03*
X009160Y008600D03*
X008040Y008600D03*
X008040Y007600D03*
X009160Y007600D03*
X009160Y006600D03*
X008040Y006600D03*
X008040Y005600D03*
X009160Y005600D03*
X009160Y004600D03*
X008040Y004600D03*
X008040Y003500D03*
X009160Y003500D03*
D21*
X002868Y006300D03*
X001332Y006300D03*
D22*
X026800Y003270D03*
X030390Y003270D03*
X030390Y001500D03*
X026800Y001500D03*
D23*
X018693Y012200D03*
X018693Y013200D03*
X018693Y014200D03*
X015307Y014200D03*
X015307Y013200D03*
X015307Y012200D03*
D24*
X017288Y015726D03*
X017288Y016100D03*
X017288Y016474D03*
X018312Y016474D03*
X018312Y016100D03*
X018312Y015726D03*
D25*
X027738Y013650D03*
X027935Y013650D03*
X028131Y013650D03*
X028328Y013650D03*
X028525Y013650D03*
X028722Y013650D03*
X028919Y013650D03*
X029116Y013650D03*
X029313Y013650D03*
X029509Y013650D03*
X029706Y013650D03*
X029903Y013650D03*
X030100Y013650D03*
X030297Y013650D03*
X030494Y013650D03*
X030691Y013650D03*
X030887Y013650D03*
X031084Y013650D03*
X031281Y013650D03*
X031478Y013650D03*
X031675Y013650D03*
X031872Y013650D03*
X032069Y013650D03*
X032265Y013650D03*
X032462Y013650D03*
X032462Y007350D03*
X032265Y007350D03*
X032069Y007350D03*
X031872Y007350D03*
X031675Y007350D03*
X031478Y007350D03*
X031281Y007350D03*
X031084Y007350D03*
X030887Y007350D03*
X030691Y007350D03*
X030494Y007350D03*
X030297Y007350D03*
X030100Y007350D03*
X029903Y007350D03*
X029706Y007350D03*
X029509Y007350D03*
X029313Y007350D03*
X029116Y007350D03*
X028919Y007350D03*
X028722Y007350D03*
X028525Y007350D03*
X028328Y007350D03*
X028131Y007350D03*
X027935Y007350D03*
X027738Y007350D03*
D26*
X026950Y008138D03*
X026950Y008335D03*
X026950Y008531D03*
X026950Y008728D03*
X026950Y008925D03*
X026950Y009122D03*
X026950Y009319D03*
X026950Y009516D03*
X026950Y009713D03*
X026950Y009909D03*
X026950Y010106D03*
X026950Y010303D03*
X026950Y010500D03*
X026950Y010697D03*
X026950Y010894D03*
X026950Y011091D03*
X026950Y011287D03*
X026950Y011484D03*
X026950Y011681D03*
X026950Y011878D03*
X026950Y012075D03*
X026950Y012272D03*
X026950Y012469D03*
X026950Y012665D03*
X026950Y012862D03*
X033250Y012862D03*
X033250Y012665D03*
X033250Y012469D03*
X033250Y012272D03*
X033250Y012075D03*
X033250Y011878D03*
X033250Y011681D03*
X033250Y011484D03*
X033250Y011287D03*
X033250Y011091D03*
X033250Y010894D03*
X033250Y010697D03*
X033250Y010500D03*
X033250Y010303D03*
X033250Y010106D03*
X033250Y009909D03*
X033250Y009713D03*
X033250Y009516D03*
X033250Y009319D03*
X033250Y009122D03*
X033250Y008925D03*
X033250Y008728D03*
X033250Y008531D03*
X033250Y008335D03*
X033250Y008138D03*
D27*
X044700Y013309D03*
X044700Y013565D03*
X044700Y013820D03*
X044700Y014076D03*
X044700Y014332D03*
X044700Y014588D03*
X044700Y014844D03*
X044700Y015100D03*
X047003Y015100D03*
X047003Y014844D03*
X047003Y014588D03*
X047003Y014332D03*
X047003Y014076D03*
X047003Y013820D03*
X047003Y013565D03*
X047003Y013309D03*
X016803Y008300D03*
X016803Y008044D03*
X016803Y007788D03*
X016803Y007532D03*
X016803Y007276D03*
X016803Y007020D03*
X016803Y006765D03*
X016803Y006509D03*
X014500Y006509D03*
X014500Y006765D03*
X014500Y007020D03*
X014500Y007276D03*
X014500Y007532D03*
X014500Y007788D03*
X014500Y008044D03*
X014500Y008300D03*
D28*
X044800Y010500D03*
X044800Y011000D03*
X044800Y011500D03*
X044800Y012000D03*
X046926Y012000D03*
X046926Y011500D03*
X046926Y011000D03*
X046926Y010500D03*
D29*
X042400Y009000D03*
X042400Y007500D03*
D30*
X042452Y006600D03*
X043948Y006600D03*
D31*
X047000Y006570D03*
X047000Y007830D03*
X001700Y007670D03*
X001700Y008930D03*
D32*
X014700Y009509D03*
X014700Y009706D03*
X014700Y009903D03*
X014700Y010100D03*
X015920Y010100D03*
X015920Y009903D03*
X015920Y009706D03*
X015920Y009509D03*
X018000Y009509D03*
X018000Y009706D03*
X018000Y009903D03*
X018000Y010100D03*
X019220Y010100D03*
X019220Y009903D03*
X019220Y009706D03*
X019220Y009509D03*
D33*
X018400Y007500D03*
X018400Y007303D03*
X018400Y007106D03*
X018400Y006909D03*
X018400Y006713D03*
X020369Y006713D03*
X020369Y006909D03*
X020369Y007106D03*
X020369Y007303D03*
X020369Y007500D03*
D34*
X003807Y007409D03*
X003807Y007606D03*
X003807Y007803D03*
X003807Y008000D03*
X002980Y008000D03*
X002980Y007803D03*
X002980Y007606D03*
X002980Y007409D03*
D35*
X003394Y007705D03*
D36*
X002770Y009000D03*
X004030Y009000D03*
D37*
X004982Y008785D03*
X004982Y007585D03*
D38*
X023867Y006956D03*
X023867Y006700D03*
X023867Y006444D03*
X024733Y006444D03*
X024733Y006956D03*
M02*
