%
M48
M72
T01C0.0120
T02C0.0320
T03C0.0354
T04C0.0360
T05C0.0400
T06C0.0512
%
T01
X4600Y2400
X5200Y2400
X5800Y2400
X6700Y2500
X7300Y2500
X7300Y2000
X6700Y2000
X7900Y2000
X7900Y2500
X8500Y2500
X9700Y2800
X10300Y2800
X10900Y2800
X11500Y2800
X11100Y3500
X11300Y4000
X12300Y4000
X13400Y4000
X14500Y3300
X14800Y4300
X16300Y4300
X17400Y4800
X17700Y5100
X17000Y5400
X16200Y5400
X14400Y5100
X13700Y5400
X12200Y6000
X11100Y6500
X11100Y7000
X11100Y7900
X11100Y8500
X11900Y9600
X11400Y10000
X11100Y11000
X10400Y11700
X9700Y11700
X8000Y12100
X8000Y12700
X8800Y12900
X9700Y13300
X10400Y13300
X9700Y12500
X7900Y13900
X7500Y13900
X6789Y13900
X6100Y13700
X5700Y13700
X4400Y13900
X3600Y13600
X4100Y13200
X4900Y11900
X5300Y11900
X6300Y11900
X6700Y11900
X6200Y11500
X6200Y11000
X6200Y10500
X6200Y10000
X5300Y10000
X5000Y9400
X4500Y9400
X4500Y9800
X4100Y9800
X3700Y9800
X4500Y9000
X4100Y8200
X3400Y8300
X2900Y8300
X2400Y8300
X1900Y8300
X1300Y8300
X1200Y9000
X2400Y9000
X6200Y9000
X6200Y9500
X6200Y7900
X6800Y7400
X6200Y6600
X5300Y5900
X4100Y6900
X4500Y7100
X3600Y6900
X3600Y6300
X7600Y6600
X7650Y5450
X7600Y4600
X5300Y4300
X5500Y3600
X5500Y3150
X6700Y3100
X7300Y3100
X10400Y1500
X10900Y1500
X11400Y1500
X11900Y1500
X11900Y1100
X11400Y1100
X10900Y1100
X10400Y1100
X7900Y1400
X18000Y4300
X19500Y4200
X19800Y4000
X20100Y4500
X21100Y4400
X20700Y5100
X20200Y5700
X20600Y5900
X20300Y6200
X19600Y6900
X19300Y7200
X17900Y7100
X19600Y7900
X18000Y8600
X17600Y8600
X17200Y8700
X15900Y9300
X16500Y9600
X17200Y9700
X17600Y9600
X18500Y9900
X18700Y9600
X17400Y10200
X16700Y10000
X15500Y9800
X14300Y9500
X14100Y10400
X15500Y10700
X14100Y11800
X13300Y12200
X12900Y11600
X13300Y13200
X12200Y13400
X12600Y13900
X14400Y14700
X14400Y15600
X15300Y16100
X14400Y16500
X16300Y16100
X18600Y17100
X19000Y16100
X19600Y16300
X19300Y15700
X20600Y15400
X22000Y16000
X23600Y16300
X23900Y15400
X23200Y14800
X25000Y13900
X24300Y13300
X25000Y13000
X25000Y12500
X25000Y12050
X24600Y12000
X26000Y12500
X26000Y12800
X27200Y13300
X28000Y13000
X28500Y13000
X30200Y13100
X30500Y12850
X31400Y12800
X31600Y12500
X32000Y12300
X31400Y12200
X30800Y11600
X30200Y11600
X31100Y11000
X32700Y10600
X32700Y10100
X35400Y9500
X36300Y9600
X36900Y9100
X36600Y8800
X35100Y8700
X34900Y8400
X34700Y8100
X34500Y7800
X33800Y8000
X32700Y8300
X30600Y8100
X29600Y8300
X29300Y8100
X28300Y8100
X27600Y8700
X26000Y8500
X25700Y8200
X25400Y8600
X25100Y7900
X25400Y7600
X24400Y7800
X23800Y7400
X23200Y7700
X22400Y7100
X22900Y6500
X23300Y6800
X23900Y6200
X24500Y6200
X22600Y6200
X21200Y7100
X18700Y5500
X16100Y6450
X15300Y7200
X13900Y7400
X13900Y6800
X14000Y6500
X20800Y9400
X20800Y10200
X21600Y10700
X23500Y10100
X23900Y11000
X25700Y11000
X25000Y10000
X25000Y9600
X26000Y9500
X27600Y9700
X27600Y10100
X30100Y9100
X27400Y7100
X27100Y6800
X28500Y6500
X28900Y6800
X30000Y6500
X31700Y5900
X31600Y5500
X31300Y5300
X30100Y5600
X29500Y5500
X28200Y5800
X24800Y5200
X23100Y4800
X22600Y4400
X24800Y3800
X24300Y3200
X23900Y3100
X23400Y3100
X23000Y3100
X26100Y1500
X29800Y1500
X31800Y3100
X31500Y3400
X31200Y3700
X30900Y4000
X30500Y4000
X32100Y3400
X33200Y3200
X33500Y3500
X33800Y4100
X32658Y4455
X32800Y5700
X34200Y5700
X34200Y6000
X33800Y6600
X33400Y6600
X33500Y7100
X35400Y4600
X40000Y6500
X41900Y6000
X43200Y4800
X45200Y5800
X45800Y5500
X46900Y6200
X46300Y4400
X47700Y3600
X44400Y7800
X44400Y8300
X42900Y8200
X42300Y8200
X40000Y8000
X40000Y9500
X41700Y9500
X42300Y9500
X42900Y9500
X44600Y9900
X46300Y9600
X46300Y9000
X46903Y8800
X46300Y8500
X46300Y8000
X49600Y8800
X49400Y10000
X49300Y11000
X46900Y10000
X45500Y11500
X42900Y11500
X42900Y11000
X42900Y12000
X42900Y12700
X42900Y13200
X41700Y13700
X42200Y14000
X43500Y14500
X43800Y14300
X44100Y14000
X42900Y14900
X42800Y15500
X43700Y15200
X45100Y16300
X45600Y16300
X46100Y16300
X46600Y16300
X47500Y15700
X47900Y15200
X48500Y14900
X49600Y14900
X49300Y16000
X49300Y17000
X48200Y17500
X49300Y17800
X51500Y18300
X42100Y16200
X41700Y15900
X40800Y17000
X41700Y17200
X38000Y15400
X39200Y14600
X39800Y13900
X39800Y13100
X39200Y12600
X37700Y12600
X36200Y12600
X35500Y13100
X34500Y12500
X34000Y12100
X35000Y12100
X35500Y11700
X35700Y10400
X36300Y10100
X41400Y12400
X41100Y12700
X36100Y14500
X35500Y13900
X33800Y14700
X33200Y14200
X32800Y13800
X32300Y13100
X31900Y14600
X31500Y14600
X30300Y15300
X30500Y15600
X30200Y15900
X29600Y15500
X28800Y14900
X27000Y14200
X26500Y14100
X23200Y13500
X21000Y12400
X20600Y13200
X19300Y12200
X17500Y13000
X16100Y13600
X17100Y12100
X19300Y10400
X23800Y9200
X27600Y12000
X28100Y11800
X28800Y11900
X20600Y14200
X19600Y14200
X25000Y16700
X25700Y16400
X26500Y16900
X27000Y16900
X27400Y17600
X27900Y17600
X26600Y18200
X26300Y17900
X26300Y18500
X24300Y18500
X24300Y18900
X24300Y19300
X24300Y19700
X20600Y20100
X11300Y18000
X8600Y17400
X6700Y16700
X6100Y16700
X5500Y16700
X5500Y16100
X6100Y16100
X6700Y16100
X6700Y15500
X6100Y15500
X5500Y15500
X3800Y16100
X2700Y16800
X1800Y16500
X3900Y17400
X3100Y17900
X2700Y17900
X1800Y17600
X1800Y18600
X4300Y18600
X5800Y18300
X6300Y18600
X6600Y18300
X8200Y18800
X6900Y19600
X4300Y19600
X8700Y15400
X8300Y15000
X7500Y15200
X3700Y15100
X3700Y14700
X3600Y11400
X12200Y15600
X12500Y15300
X12800Y15000
X30300Y17400
X32800Y16200
X33200Y16200
X33800Y17400
X32200Y19600
X47700Y13200
X48400Y12800
X49700Y12200
X33800Y2400
X33500Y2100
X33800Y1700
X34100Y1300
X34400Y1100
T02
X36750Y13400
X38650Y13400
T03
X2500Y2334
X2500Y4066
T04
X8600Y1500
X9600Y1500
X21600Y8900
X22600Y8900
X22600Y10100
X21600Y10100
X35100Y2500
X36100Y2500
X36100Y1500
X35100Y1500
X48100Y4900
X48100Y5900
X9600Y19500
X8600Y19500
T05
X13100Y19500
X14100Y19500
X15100Y19500
X16100Y19500
X17100Y19500
X18100Y19500
X19100Y19500
X20100Y19500
X21100Y19500
X22100Y19500
X22100Y18500
X21100Y18500
X20100Y18500
X19100Y18500
X18100Y18500
X17100Y18500
X16100Y18500
X15100Y18500
X14100Y18500
X13100Y18500
X38100Y18500
X39100Y18500
X40100Y18500
X41100Y18500
X42100Y18500
X43100Y18500
X44100Y18500
X45100Y18500
X46100Y18500
X47100Y18500
X47100Y19500
X46100Y19500
X45100Y19500
X44100Y19500
X43100Y19500
X42100Y19500
X41100Y19500
X40100Y19500
X39100Y19500
X38100Y19500
X49100Y19500
X50100Y19500
X51100Y19500
X51100Y17500
X51100Y16500
X51100Y15500
X51100Y14500
X51100Y13500
X51100Y11500
X51100Y10500
X51100Y9500
X51100Y8500
X51100Y7500
X51100Y3500
X51100Y2500
X51100Y1500
X47100Y1500
X46100Y1500
X45100Y1500
X44100Y1500
X43100Y1500
X42100Y1500
X41100Y1500
X40100Y1500
X39100Y1500
X38100Y1500
X38100Y2500
X39100Y2500
X40100Y2500
X41100Y2500
X42100Y2500
X43100Y2500
X44100Y2500
X45100Y2500
X46100Y2500
X47100Y2500
X22100Y2500
X21100Y2500
X20100Y2500
X19100Y2500
X18100Y2500
X17100Y2500
X16100Y2500
X15100Y2500
X14100Y2500
X13100Y2500
X13100Y1500
X14100Y1500
X15100Y1500
X16100Y1500
X17100Y1500
X18100Y1500
X19100Y1500
X20100Y1500
X21100Y1500
X22100Y1500
T06
X48100Y1500
X49100Y1500
M30
